<svg version="1.1" id="Layer_1" xmlns="http://www.w3.org/2000/svg" xmlns:xlink="http://www.w3.org/1999/xlink" x="0px" y="0px"
	 width="100%" viewBox="0 0 352 352" enable-background="new 0 0 352 352" xml:space="preserve">
<path fill="#000000" opacity="1.000000" stroke="none" 
	d="
M168.815155,143.144745 
	C178.844101,150.007950 188.591354,156.648621 198.338623,163.289291 
	C198.506256,163.080246 198.673889,162.871201 198.841522,162.662155 
	C192.759644,157.727173 186.681015,152.788193 180.593643,147.860001 
	C179.039825,146.602066 177.601318,145.110016 175.865112,144.184662 
	C167.774933,139.872757 164.382217,133.108902 163.696152,124.085236 
	C163.005524,115.001175 161.179474,106.004051 159.884735,96.963989 
	C159.796753,96.349754 159.992264,95.694916 160.236938,93.250839 
	C181.053864,113.701118 200.944870,133.241806 221.151947,153.093002 
	C215.454468,158.400223 208.901917,161.428024 203.361572,165.932800 
	C204.655655,167.660553 206.259216,168.746826 208.075714,169.746948 
	C208.552032,168.506058 207.750458,166.958160 209.359055,166.207916 
	C215.967087,163.126068 221.630249,158.203217 228.927063,156.422211 
	C233.490402,155.308365 237.896683,155.552460 242.141953,157.340332 
	C252.175568,161.565964 258.780579,170.256332 268.034973,176.430588 
	C266.667053,177.292877 266.159698,177.874344 265.603638,177.925385 
	C245.674576,179.754761 229.555573,190.211334 213.803986,201.183762 
	C187.734650,219.343475 164.831650,241.199265 142.359009,263.517853 
	C140.706100,265.159424 139.010239,266.758514 137.302902,268.343536 
	C137.100235,268.531677 136.698013,268.504883 136.349091,268.586945 
	C134.964951,267.199310 136.331894,266.111847 136.867859,265.102448 
	C144.444000,250.834045 152.164124,236.641541 159.663101,222.333008 
	C162.310226,217.282120 167.829819,215.714874 171.579987,211.819260 
	C169.882202,211.089325 168.264725,211.802902 167.253128,212.423798 
	C161.187332,216.146866 155.944931,213.673935 150.439850,210.963394 
	C142.673370,207.139374 134.767700,203.582092 126.812759,200.163895 
	C123.141479,198.586380 120.892387,196.507446 120.271263,192.276962 
	C119.415848,186.450699 116.656982,180.983429 116.128723,173.973083 
	C123.692184,176.103867 130.536011,178.031921 137.379822,179.959976 
	C137.565842,179.568741 137.751877,179.177521 137.937897,178.786301 
	C132.952454,174.741882 128.426651,169.856812 122.886230,166.827408 
	C111.224838,160.451218 107.951210,149.873062 106.383171,138.035172 
	C106.318344,137.545715 106.282356,137.049530 106.281914,136.556442 
	C106.281799,136.430237 106.469017,136.303879 106.994164,135.648209 
	C112.667824,138.514145 118.491737,141.455978 124.315643,144.397812 
	C124.511276,144.151230 124.706902,143.904648 124.902527,143.658066 
	C118.857857,138.104065 112.930283,132.414627 106.723183,127.048538 
	C103.181717,123.986900 100.787376,120.597244 99.871262,115.899361 
	C98.663002,109.703369 96.921188,103.610947 95.388313,97.479111 
	C95.071823,96.213074 94.325127,94.973648 95.954887,92.930153 
	C120.109390,109.567749 144.321426,126.244972 168.815155,143.144745 
z"/>
</svg>